<svg xmlns="http://www.w3.org/2000/svg" viewBox="0 0 221.93 31.04"><defs><style>.cls-1{fill:#7e7e7e;}</style></defs><title>The Carlyle group logo100</title><g id="Layer_2" data-name="Layer 2"><g id="Layer_1-2" data-name="Layer 1"><rect class="cls-1" y="30.41" width="221.93" height="0.63"/><rect class="cls-1" width="221.93" height="0.63"/><path class="cls-1" d="M11.39,8.17H9.78a4.56,4.56,0,0,0-2.5.49,2.76,2.76,0,0,0-.9,1.92l0,.21H5.52L5.9,7.1a51,51,0,0,0,5.49.28h2.12A50.86,50.86,0,0,0,19,7.1l.39,3.69h-.82l0-.21a2.8,2.8,0,0,0-.91-1.92,4.54,4.54,0,0,0-2.5-.49h-1.6V20.55a2.5,2.5,0,0,0,.39,1.68,2.44,2.44,0,0,0,1.65.39h.15v.63H9.19v-.63h.16A2.42,2.42,0,0,0,11,22.23a2.5,2.5,0,0,0,.39-1.68Z"/><path class="cls-1" d="M23.55,17.3v4a1.79,1.79,0,0,0,.32,1.26,2,2,0,0,0,1.32.31h.14v.48H19.85v-.48H20a2,2,0,0,0,1.31-.3,1.81,1.81,0,0,0,.31-1.27V13.34a1.79,1.79,0,0,0-.31-1.26,2,2,0,0,0-1.31-.3h-.15V11.3h5.48v.48h-.14a2,2,0,0,0-1.32.3,1.79,1.79,0,0,0-.32,1.26v3.37H30.3V13.34A1.79,1.79,0,0,0,30,12.08a2,2,0,0,0-1.32-.3h-.15V11.3H34v.48h-.15a2,2,0,0,0-1.32.3,1.85,1.85,0,0,0-.31,1.26v7.92a1.86,1.86,0,0,0,.31,1.27,2,2,0,0,0,1.32.3H34v.48H28.52v-.48h.15A2,2,0,0,0,30,22.52a1.79,1.79,0,0,0,.31-1.26v-4Z"/><path class="cls-1" d="M39.2,17.24v4.08A1.09,1.09,0,0,0,40,22.4a8.77,8.77,0,0,0,2.83.31h.4a2,2,0,0,0,1.3-.36,2.26,2.26,0,0,0,.61-1.29l0-.14h.74l-.3,2.6c-1.2-.07-2.1-.1-2.69-.1s-1.36,0-2.22-.06-1.33-.05-1.5-.05h-3.7v-.48h.17a1.87,1.87,0,0,0,1.28-.32,1.73,1.73,0,0,0,.33-1.25V13.37a1.88,1.88,0,0,0-.3-1.29,2,2,0,0,0-1.31-.3h-.17V11.3h9.74l.3,2.22h-.74l0-.16c-.12-.68-.36-1.09-.71-1.24a10.11,10.11,0,0,0-2.81-.22h-2v4.86h2.18a5.47,5.47,0,0,0,1.95-.21c.29-.14.43-.47.43-1v-.13h.74v3.12h-.74v-.11a1.23,1.23,0,0,0-.35-1,4.83,4.83,0,0,0-2-.23Z"/><path class="cls-1" d="M68.14,23a18.83,18.83,0,0,1-5.29.84,8.74,8.74,0,0,1-6.42-2.34,8.47,8.47,0,0,1-2.37-6.32A8.46,8.46,0,0,1,56.42,9,8.43,8.43,0,0,1,62.66,6.6,20.35,20.35,0,0,1,68,7.26l.35,3.24h-.86l0-.19a3.35,3.35,0,0,0-1.49-2.26,5.67,5.67,0,0,0-3.16-.8,5.31,5.31,0,0,0-4.39,2.23,9.07,9.07,0,0,0-1.73,5.71A9,9,0,0,0,58.43,21a5.62,5.62,0,0,0,4.62,2.21c2.57,0,4.07-1.05,4.49-3.17l0-.18h.89Z"/><path class="cls-1" d="M72.31,19.47l-.84,1.73a3.32,3.32,0,0,0-.36.94c0,.3.3.48.92.52l.14,0v.47H68.76v-.47h.14a1.3,1.3,0,0,0,.89-.32,4.33,4.33,0,0,0,.78-1.21l4.92-10h.56l5.09,10a5.69,5.69,0,0,0,.75,1.23.87.87,0,0,0,.67.3h.12v.47H78.57v-.47h.15a2,2,0,0,0,.74-.09.37.37,0,0,0,.19-.36,4.14,4.14,0,0,0-.43-1.08l-.85-1.68Zm.26-.58H78l-2.79-5.51Z"/><path class="cls-1" d="M86.85,17.6v3.56a1.86,1.86,0,0,0,.29,1.23,1.84,1.84,0,0,0,1.23.29h.08v.47H83.37v-.47h.13a1.89,1.89,0,0,0,1.25-.29A1.82,1.82,0,0,0,85,21.16V13.45a1.81,1.81,0,0,0-.29-1.22,1.83,1.83,0,0,0-1.25-.29h-.13v-.47h5.22a8.18,8.18,0,0,1,3.48.53,1.91,1.91,0,0,1,1,1.84,2.9,2.9,0,0,1-.81,2.07,5.58,5.58,0,0,1-2.45,1.35,3.62,3.62,0,0,1,.92.65A17.49,17.49,0,0,1,92,19.46l.93,1.25a11.73,11.73,0,0,0,1.32,1.6,1.26,1.26,0,0,0,.88.37h.1v.47H92.55l-4-5.55Zm0-.47h2a3.14,3.14,0,0,0,1.75-1.07,3,3,0,0,0,.63-1.91,1.84,1.84,0,0,0-.86-1.69,5.47,5.47,0,0,0-2.75-.52h-.75Z"/><path class="cls-1" d="M105.35,20.52H106l-.32,2.78q-3.14-.15-6.09-.15H96.1v-.47h.16a1.79,1.79,0,0,0,1.22-.29,1.83,1.83,0,0,0,.29-1.25V13.45a1.81,1.81,0,0,0-.29-1.22,1.76,1.76,0,0,0-1.22-.29H96.1v-.47h5.15v.47h-.15a1.8,1.8,0,0,0-1.23.29,1.81,1.81,0,0,0-.29,1.22v7.69a1,1,0,0,0,.67,1,7.59,7.59,0,0,0,2.55.28h.45a2,2,0,0,0,1.46-.37,2.78,2.78,0,0,0,.61-1.39Z"/><path class="cls-1" d="M111.19,17.66l-3-4.23c-.69-1-1.36-1.49-2-1.49h-.13v-.47h4.44v.47h-.18c-.43,0-.65.12-.65.36a2.41,2.41,0,0,0,.54,1.13L112.7,17,115,13.41a2.85,2.85,0,0,0,.5-1c0-.27-.25-.42-.74-.45h-.2v-.47H118v.47h-.2a1.67,1.67,0,0,0-1,.25,5.85,5.85,0,0,0-1,1.25L113,17.66v3.5a1.59,1.59,0,0,0,.35,1.23,2.44,2.44,0,0,0,1.45.29h.14v.47h-5.68v-.47h.14a2.44,2.44,0,0,0,1.45-.29,1.6,1.6,0,0,0,.34-1.23Z"/><path class="cls-1" d="M127.89,20.52h.69l-.32,2.78q-3.12-.15-6.09-.15h-3.52v-.47h.16a1.81,1.81,0,0,0,1.22-.29,1.9,1.9,0,0,0,.28-1.25V13.45a1.76,1.76,0,0,0-.29-1.22,1.74,1.74,0,0,0-1.21-.29h-.16v-.47h5.14v.47h-.15a1.76,1.76,0,0,0-1.22.29,1.76,1.76,0,0,0-.29,1.22v7.69a1,1,0,0,0,.67,1,7.51,7.51,0,0,0,2.55.28h.45c.75,0,1.24-.12,1.45-.37a2.7,2.7,0,0,0,.61-1.39Z"/><path class="cls-1" d="M132.84,17.25v4a1.07,1.07,0,0,0,.75,1.06,8,8,0,0,0,2.65.3h.38a1.76,1.76,0,0,0,1.22-.36,2.12,2.12,0,0,0,.57-1.25l0-.14h.69l-.28,2.54c-1.14-.07-2-.1-2.53-.1s-1.28,0-2.08-.06-1.25-.05-1.41-.05h-3.47v-.47h.16a1.68,1.68,0,0,0,1.2-.31,1.69,1.69,0,0,0,.31-1.21V13.48a1.9,1.9,0,0,0-.28-1.26,1.83,1.83,0,0,0-1.23-.28h-.16v-.47h9.14l.28,2.16h-.69l0-.16c-.11-.66-.34-1.06-.67-1.2a9,9,0,0,0-2.64-.22h-1.91v4.73h2a4.89,4.89,0,0,0,1.83-.21c.26-.14.4-.45.4-1v-.13h.69v3h-.69v-.11a1.2,1.2,0,0,0-.33-1,4.32,4.32,0,0,0-1.9-.22Z"/><path class="cls-1" d="M161.81,23a19.94,19.94,0,0,1-5.66.91q-4.86,0-7.23-2.78a8.8,8.8,0,0,1-2-5.87A8.33,8.33,0,0,1,149.32,9a8.83,8.83,0,0,1,6.44-2.38,22.38,22.38,0,0,1,5.68.66l.37,3.25h-.92l0-.18A3,3,0,0,0,160,8.62a6.38,6.38,0,0,0-8.74.91,9.05,9.05,0,0,0-1.78,5.85,7.39,7.39,0,0,0,2,5.54,7.77,7.77,0,0,0,5.66,1.94,18.72,18.72,0,0,0,2.45-.21V18.93a2.55,2.55,0,0,0-.39-1.69,2.28,2.28,0,0,0-1.61-.41h-.22v-.65H164v.65h-.17a2.36,2.36,0,0,0-1.65.41,2.55,2.55,0,0,0-.39,1.69Z"/><path class="cls-1" d="M168.37,17.71v3.53a1.81,1.81,0,0,0,.28,1.21,1.7,1.7,0,0,0,1.19.29h.08v.46H165v-.46h.13a1.79,1.79,0,0,0,1.21-.28,1.84,1.84,0,0,0,.28-1.22V13.6a1.84,1.84,0,0,0-.28-1.22,1.78,1.78,0,0,0-1.21-.29H165v-.46h5.08a7.88,7.88,0,0,1,3.4.53,1.89,1.89,0,0,1,1,1.82,2.91,2.91,0,0,1-.8,2.06,5.28,5.28,0,0,1-2.38,1.33,3.47,3.47,0,0,1,.9.64,18.8,18.8,0,0,1,1.22,1.54l.91,1.25a12.56,12.56,0,0,0,1.28,1.58,1.27,1.27,0,0,0,.86.36h.1v.46h-2.62l-3.85-5.49Zm0-.46h1.92A3.08,3.08,0,0,0,172,16.18a3,3,0,0,0,.61-1.89,1.83,1.83,0,0,0-.83-1.67,5.21,5.21,0,0,0-2.68-.53h-.73Z"/><path class="cls-1" d="M183.88,23.55a6.45,6.45,0,0,1-4.64-1.72,5.84,5.84,0,0,1-1.8-4.41,5.81,5.81,0,0,1,1.8-4.41,7.21,7.21,0,0,1,8.82-.41,6,6,0,0,1,1.65,2.13,6.35,6.35,0,0,1,.6,2.69,5.84,5.84,0,0,1-1.8,4.41A6.42,6.42,0,0,1,183.88,23.55Zm0-.46A3.84,3.84,0,0,0,187,21.5a6.42,6.42,0,0,0,1.24-4.08A6.41,6.41,0,0,0,187,13.35a3.92,3.92,0,0,0-6.32,0,6.41,6.41,0,0,0-1.24,4.07,6.48,6.48,0,0,0,1.23,4.08A3.85,3.85,0,0,0,183.88,23.09Z"/><path class="cls-1" d="M191.53,12.09v-.46h5v.46h-.14a1.76,1.76,0,0,0-1.2.29,1.84,1.84,0,0,0-.28,1.22v5.2a4.65,4.65,0,0,0,1,3.33,3.56,3.56,0,0,0,2.63,1,3,3,0,0,0,2.34-.91,4.43,4.43,0,0,0,.85-3V13.6a1.84,1.84,0,0,0-.28-1.22,1.78,1.78,0,0,0-1.21-.29h-.13v-.46h4.33v.46h-.11a1.81,1.81,0,0,0-1.22.29,1.77,1.77,0,0,0-.29,1.22v4.94a9.64,9.64,0,0,1-.24,2.58,2.93,2.93,0,0,1-1,1.38,5.75,5.75,0,0,1-3.71,1.05,5.67,5.67,0,0,1-3.28-.83,2.8,2.8,0,0,1-1.12-1.37,8.58,8.58,0,0,1-.28-2.55V13.6a1.77,1.77,0,0,0-.29-1.22,1.8,1.8,0,0,0-1.21-.29Z"/><path class="cls-1" d="M209.09,18.4v2.84a1.87,1.87,0,0,0,.27,1.23,1.82,1.82,0,0,0,1.22.27h.4v.46H205.7v-.46h.14a1.71,1.71,0,0,0,1.2-.29,1.8,1.8,0,0,0,.29-1.21V13.6a1.83,1.83,0,0,0-.29-1.22,1.76,1.76,0,0,0-1.2-.29h-.14v-.46h5.09a13.6,13.6,0,0,1,2.3.14,3.07,3.07,0,0,1,1.24.53,2.61,2.61,0,0,1,1,2.18,3.32,3.32,0,0,1-1.5,2.86,6.88,6.88,0,0,1-4.06,1.06Zm0-.46h.5a4.39,4.39,0,0,0,2.89-.81,3,3,0,0,0,1-2.44,2.32,2.32,0,0,0-.79-2,4.49,4.49,0,0,0-2.67-.6h-.9Z"/></g></g></svg>