<svg xmlns="http://www.w3.org/2000/svg" viewBox="0 0 146.28 39.79"><defs><style>.cls-1{fill:#7e7e7e;}</style></defs><title>casino logo100</title><g id="Layer_2" data-name="Layer 2"><g id="Layer_1-2" data-name="Layer 1"><path class="cls-1" d="M37.8,1.06C30.22-1.18,14.53,1,6,7.2c-7.64,5.55-7.39,13-2.51,17.59,6.16,5.72,14.54,6.63,20,6.63,8.46,0,13.8-2.27,14.54-2.79,1.05-.73.06-1.71-1.17-1.27-5.62,2-10,2.38-13.88,1.84C14.79,28.09,8.33,23.32,8.18,17.74,8,12,12.24,8.47,18.05,5.44,22.48,3.14,33,.81,34.36,3.8c.21.48-.68,1.49-1.43,1.8s-.4,1.17,1.52,1.07c3.55-.19,8.64-4,3.35-5.61ZM92.23,0a13.08,13.08,0,0,1-3.94.42c-1.38-.11-3.36.1-4.13,1.32a12,12,0,0,0-1.35,4.29c0,.9.7.7,1.26,0a15.82,15.82,0,0,1,5.08-3.93,12.49,12.49,0,0,1,3-1.16C92.84.73,92.86-.18,92.23,0Z"/><path class="cls-1" d="M.18,39.54c-.82-.93,1.41-1.18,1.41-1.18C87.93,24,128.55,26,146.27,28.43h0l-6.81,5C107.92,30,67.89,30,2.53,39.58c0,0-1.88.49-2.35,0Z"/><path class="cls-1" d="M52.8,10.73A82.07,82.07,0,0,0,49,20.43a2,2,0,0,0,1.27,2.68c1.2.24.87.61-.12,1.14-1.67.91-4.55,2.28-7.41,1.79-1.21-.21-1.18-1.73-.89-2.29s.26-.74-.39-.5S37.16,25.53,34,26s-7.32-.25-8.43-3.34,2-8.56,7.84-11.15c7.05-3.14,15.83-3,18.46-2.64,1.45.2,1.49,1.1.93,1.89Zm-8.71.75c-1.44.21-6.68.72-10.38,4.71s-2.5,7.9,3,6.29a10.76,10.76,0,0,0,5.75-4.19,31.71,31.71,0,0,0,2.91-5.53c.3-.67,1-1.63-1.26-1.28Zm18.72,5-2.24-1.41c-1.49-1-1.89-2.68,1-4.71,3.68-2.57,10.48-3.55,13.75-2.75,1,.24,2.25,1.06,1.21,2a4.22,4.22,0,0,1-2.23,1.09c-.57.13-.82-.28-.44-.58S74,9.3,73.17,9a8.56,8.56,0,0,0-6,.71,1.7,1.7,0,0,0,.07,3.13c1,.51,2,.91,2.71,1.29l2,1a9.6,9.6,0,0,1,2,1.42c-.54-.48,3.07,2.18-1,6.83-1.93,2.21-6.14,5-14.3,4.42-5.77-.4-4.79-3.85-4.71-4.37.72-4.26,8.9-7,8.9-7Zm9.09-1.29c2.14-.6,2.88-.61,3.53-.8s.92-.14.79-.62-2.59-.51-6.29.39Zm-7,2.24c-2.6,1-6.29,3-7.14,4.58a2.23,2.23,0,0,0,1.44,3.48c3.81,1.13,7.66-1.5,8.47-2.75,1.14-1.73,0-2.95-.88-3.76A19.87,19.87,0,0,0,64.94,17.43Zm51.36,2.94c2.21-.95,6-5.47,8.49-9.06,1.6-2.29,7.2-7.2,13.72-4.5,4.76,2,3.67,9,.36,13a11.7,11.7,0,0,1-13.57,3.68c-3.42-1.55-3.39-5.85-3.39-5.85s-1.47,1.31-2.17,2.06c-.86.92-5.28,4.57-8.45,4.54a2.86,2.86,0,0,1-3-3.15c0-2.09,1.57-6.2,2-7.64.81-2.46-2-1.33-4.6.65a32.42,32.42,0,0,0-5.77,6.5,17.3,17.3,0,0,1-2.67,3.42c-1.39,1.23-3.72-.06-3.6-1.49a26.6,26.6,0,0,1,2.54-7.32c.43-.7-.22-.65-1.11.35-1.53,1.73-8.36,7.47-14.29,8.85-1.77.41-2.75-.77-2.6-2s3-9.4,3-9.93.31-1-.23-1.34c-.75-.44,0-1.1.9-1.69A19,19,0,0,1,88.23,7.1c.59-.1,1.52.34.56,2.09a59.56,59.56,0,0,0-3.21,8.87c-.22,1.33.46,2.41,3.58.29a46,46,0,0,0,8-7.56,53.33,53.33,0,0,1,4.55-4.88c.91-.7,2.63.83,3,1.32s.36,1-.07,1.69a12.86,12.86,0,0,0-1.2,3.26c-.18.89,0,2,1.92.08,2.23-2.22,8.28-6.47,10.83-6,2.06.33,1.87,2.67,1.47,3.86s-2.24,6.53-2.74,7.83-.13,3.13,1.38,2.47ZM133.52,9.1c-2.05-.34-5.33,2.69-6.39,5.23s-1.41,5.94.81,6.8c1.78.69,4.75-.82,6.7-4.17,1.58-2.72,2.34-7.29-1.12-7.86Z"/></g></g></svg>