<svg xmlns="http://www.w3.org/2000/svg" viewBox="0 0 120.51 69.31"><defs><style>.cls-1{fill:#7e7e7e;}</style></defs><title>citi logo100</title><g id="Layer_2" data-name="Layer 2"><g id="Layer_1-2" data-name="Layer 1"><path class="cls-1" d="M32.69,55.89a13.72,13.72,0,1,1-.43-17.55l5.15-6.54a21.94,21.94,0,1,0,.05,31.09Z"/><rect class="cls-1" x="41.85" y="26.31" width="9.26" height="42.52"/><rect class="cls-1" x="92.34" y="26.53" width="9.26" height="42.52"/><path class="cls-1" d="M76.5,69.26c-8,0-9.87-6.81-10.06-10.63h-.06V34.33H58.24V26.54h8.14V18.29l8.25-5-.22,6.32v7h8.36v7.79H74.41V55.89a5.84,5.84,0,0,0-.08.93,5.64,5.64,0,0,0,.08.93v.48a5.56,5.56,0,0,0,3.29,4.19,5.67,5.67,0,0,0,2.19.44,5.56,5.56,0,0,0,4.3-2,5.12,5.12,0,0,0,.6-.91,0,0,0,0,0,0,0S85,69.26,76.5,69.26Z"/><path class="cls-1" d="M74.41,55.89v1.86a5.64,5.64,0,0,1-.08-.93A5.84,5.84,0,0,1,74.41,55.89Z"/><path class="cls-1" d="M73.23,0A45.23,45.23,0,0,0,35.57,20.15h13.1a35.12,35.12,0,0,1,49.13,0h13.1A45.23,45.23,0,0,0,73.23,0Z"/><path class="cls-1" d="M114,19.4V14.69h2.27a3.32,3.32,0,0,1,1,.11,1.08,1.08,0,0,1,.54.43,1.45,1.45,0,0,1,.2.77,1.41,1.41,0,0,1-.15.67,1.27,1.27,0,0,1-.43.46,1.55,1.55,0,0,1-.48.19,1.63,1.63,0,0,1,.35.17,1.21,1.21,0,0,1,.22.25,1.51,1.51,0,0,1,.19.29l.66,1.37h-1.54L116,18a1,1,0,0,0-.25-.36.51.51,0,0,0-.33-.11h-.12V19.4Zm1.37-2.8h.57a1.6,1.6,0,0,0,.36-.07.37.37,0,0,0,.22-.15.42.42,0,0,0,.09-.27.45.45,0,0,0-.14-.35.78.78,0,0,0-.5-.12h-.6Z"/><path class="cls-1" d="M115.76,12.35a4.76,4.76,0,1,0,4.75,4.75A4.76,4.76,0,0,0,115.76,12.35Zm0,8.63a3.88,3.88,0,1,1,3.87-3.88A3.88,3.88,0,0,1,115.76,21Z"/><path class="cls-1" d="M74.41,55.89v1.86a5.64,5.64,0,0,1-.08-.93A5.84,5.84,0,0,1,74.41,55.89Z"/></g></g></svg>