<svg xmlns="http://www.w3.org/2000/svg" viewBox="0 0 174.79 27.51"><defs><style>.cls-1{fill:#7e7e7e;}</style></defs><title>cdiscount logo100</title><g id="Layer_2" data-name="Layer 2"><g id="Layer_1-2" data-name="Layer 1"><path class="cls-1" d="M19.46,19a7.36,7.36,0,0,1-6,3.11,7.37,7.37,0,0,1-7.51-7.55A7.52,7.52,0,0,1,8.11,9,7.55,7.55,0,0,1,13.42,7a7.36,7.36,0,0,1,6,3.12l.22.31,4.46-3.78-.22-.26a13.69,13.69,0,0,0-10.5-4.87A13.24,13.24,0,0,0,0,14.51a13.23,13.23,0,0,0,13.42,13,13.66,13.66,0,0,0,10.49-4.83l.22-.27-4.46-3.78Z"/><path class="cls-1" d="M45.68.38v26.5H40.76V25.71a11.2,11.2,0,0,1-5.55,1.48,9.53,9.53,0,0,1-9.66-9.87,9.47,9.47,0,0,1,9.66-9.87A11.57,11.57,0,0,1,40.76,8.9V.38ZM40.76,21.12V13.45a7.22,7.22,0,0,0-4.67-1.61,5.45,5.45,0,0,0-5.69,5.48,5.36,5.36,0,0,0,5.69,5.44A7.14,7.14,0,0,0,40.76,21.12ZM49.89,9.34h4.88V26.88H49.89Zm9.94,12.37a15.25,15.25,0,0,0,6.54,1.55c2.25,0,3.13-.84,3.13-1.83s-1.09-1.58-4-2.21c-4.11-.91-7.1-2.25-7.1-5.94,0-3.44,2.85-5.83,7.28-5.83A19,19,0,0,1,73.08,9l-1.61,3.58a17.81,17.81,0,0,0-5.94-1.23c-1.86,0-2.8.67-2.8,1.69s1.16,1.55,4.21,2.18c4.42.91,7,2.45,7,5.93s-2.78,6-7.66,6A16.76,16.76,0,0,1,58,25.33Zm34,1.62a9.2,9.2,0,0,1-7.38,3.83C80.7,27.16,76,22.77,76,17.32A10.15,10.15,0,0,1,86.46,7.45a9.23,9.23,0,0,1,7.45,3.8l-3.17,2.92a5.17,5.17,0,0,0-4.28-2.32,5.56,5.56,0,0,0-5.62,5.48,5.55,5.55,0,0,0,5.62,5.44,5.12,5.12,0,0,0,4.28-2.35Zm22.33-6c0,5.44-4.67,9.83-10.44,9.83S95.3,22.76,95.3,17.32a10.45,10.45,0,0,1,20.87,0Zm-4.81,0a5.62,5.62,0,1,0-5.62,5.44,5.53,5.53,0,0,0,5.62-5.44Zm26-9.36V26.88h-4.88V25.61a9.14,9.14,0,0,1-5.2,1.55c-5.59,0-8.16-2.6-8.16-8.79V8H124V18.37c0,3,1.45,4.39,4.14,4.39a6.49,6.49,0,0,0,4.32-1.51V8h4.89Zm22.17,8.27V26.88h-4.89V16.23c0-3-1.44-4.39-4.14-4.39a6.2,6.2,0,0,0-4.21,1.51V26.88h-4.89V7.8h4.89V9a8.83,8.83,0,0,1,5.09-1.54C156.91,7.45,159.48,10.05,159.48,16.23Zm10-4.39v6.74c0,3.41.56,4.39,3,4.39a20.5,20.5,0,0,0,2.25-.17v3.65a12.07,12.07,0,0,1-4.43.7c-3.2,0-5.76-2-5.76-6v-9.3h-2.7v-4h2.7V.38h4.92V7.8h5.34v4Z"/><path class="cls-1" d="M49.7,2.88a2.8,2.8,0,1,1,5.59,0,2.8,2.8,0,0,1-2.78,2.85A2.83,2.83,0,0,1,49.7,2.88Z"/></g></g></svg>