<svg xmlns="http://www.w3.org/2000/svg" viewBox="0 0 147.59 27.02"><defs><style>.cls-1{fill:#7e7e7e;}</style></defs><title>zalando logo100</title><g id="Layer_2" data-name="Layer 2"><g id="Layer_1-2" data-name="Layer 1"><path class="cls-1" d="M61.13,7.18a10.85,10.85,0,0,0-5.08-.91,24,24,0,0,0-7.18,1.06.73.73,0,0,0-.53.67v.08l.31,1.57v0a.63.63,0,0,0,.61.46h0a.84.84,0,0,0,.19,0L50,10a23.58,23.58,0,0,1,5.76-.86,8.05,8.05,0,0,1,3,.39c1,.39,1,1.05,1,2.15v1.65h-.62a37.37,37.37,0,0,0-5.56.41c-3.35.51-6.12,1.31-6.1,5.93,0,5.85,5.43,5.86,8,5.87h0A22.63,22.63,0,0,0,60,25c2.44-.57,3.06-1.34,3-3.76V11.53c0-1.49,0-3.34-1.91-4.35m-1.33,15a13.42,13.42,0,0,1-4.22.64v0c-2.41,0-4.75-.29-4.75-3.36,0-2.43,1.31-2.72,3-3.09l.11,0A45.47,45.47,0,0,1,59.8,16v6.22ZM90.19,11.53v9.74c0,2.42-.59,3.19-3,3.76a22.84,22.84,0,0,1-4.48.48h0c-2.61,0-8,0-8-5.87,0-4.62,2.75-5.42,6.1-5.93a37.46,37.46,0,0,1,5.56-.41h.62V11.66c0-1.1,0-1.76-1-2.15a8.05,8.05,0,0,0-3-.39,23.58,23.58,0,0,0-5.76.86l-.52.13a1.06,1.06,0,0,1-.2,0h0a.61.61,0,0,1-.6-.46v0L75.5,8.08V8A.71.71,0,0,1,76,7.33,24.08,24.08,0,0,1,83.2,6.27a10.93,10.93,0,0,1,5.09.91c1.91,1,1.91,2.86,1.9,4.35M87,16a45.57,45.57,0,0,0-5.9.38l-.11,0c-1.65.37-3,.66-3,3.09,0,3.07,2.35,3.34,4.75,3.36v0A13.42,13.42,0,0,0,87,22.22V16Zm52.43-9.73c-7.57,0-8.21,5-8.21,9.64s.64,9.59,8.21,9.6h0c7.56,0,8.2-5,8.21-9.61,0-4.87-.65-9.62-8.21-9.63m0,16.52c-4.59,0-4.82-2.37-4.85-6.88S134.79,9,139.38,9s4.82,2.38,4.85,6.91-.26,6.87-4.85,6.89m-13.58,2-.19.05a18.27,18.27,0,0,1-5,.64h0c-7,0-8.37-3.54-8.38-9.64,0-7,2.23-9.59,8.18-9.6a18.72,18.72,0,0,1,4.58.52V1.16c0-.25.1-.57.69-.69L127.48,0h.1a.63.63,0,0,1,.58.71V21.88c0,1.33-.13,2.48-2.36,2.94M124.93,9.5A18.26,18.26,0,0,0,120.62,9c-3.58,0-5.08,1-5.12,7,0,6.53,2,6.88,5.16,6.91v0a17.37,17.37,0,0,0,4.27-.57ZM108.22,25.07h-1.66a.78.78,0,0,1-.79-.78V11.73c0-2.12-.66-2.71-3-2.74a25,25,0,0,0-6.07.88V24.29a.74.74,0,0,1-.75.78H94.31a.78.78,0,0,1-.79-.78V10.2c0-1.3.1-2.2,2-2.8a27.88,27.88,0,0,1,7.41-1.13c4.28,0,6.11,1.54,6.11,5.16V24.29a.77.77,0,0,1-.78.78m-37.67.34h0a2.88,2.88,0,0,0,1.94-.52.44.44,0,0,0,.13-.36,8.93,8.93,0,0,0-.26-1.34v0a.51.51,0,0,0-.48-.47h-.5c-.68,0-1.25-.12-1.26-1.12V.71A.66.66,0,0,0,69.5,0h-.12L67.52.48a.67.67,0,0,0-.64.68V21.64c0,2.42,1.31,3.76,3.67,3.77Zm-26.3-.34H30.9a.77.77,0,0,1-.78-.78V22.66a1.21,1.21,0,0,1,.36-.89L41.1,9.43H30.7a.78.78,0,0,1-.79-.79V7.49a.77.77,0,0,1,.79-.78H44.18a.76.76,0,0,1,.78.78V9.15a1.15,1.15,0,0,1-.34.83L34,22.35H44.25a.77.77,0,0,1,.78.78v1.16a.77.77,0,0,1-.78.78"/><path class="cls-1" d="M3.38,4.65C1.07,4.65-.11,11,0,16.86H0C.12,22.05,1.27,27,3.55,27c8.73,0,18.67-8.23,18.67-11.18a6.47,6.47,0,0,0-1.76-3.28h0l-.22-.24C17.13,8.85,10.68,4.65,3.38,4.65Z"/><path class="cls-1" d="M0,16.86c6.56,1.54,13.56-.19,20.34-4.24l.11-.06-.21-.24C17.14,8.85,10.68,4.65,3.38,4.65,1.07,4.65-.11,11,0,16.86m20.45-4.3Z"/><path class="cls-1" d="M0,16.86C.13,22.05,1.27,27,3.55,27c8.73,0,18.67-8.23,18.67-11.18a6.47,6.47,0,0,0-1.76-3.28C13.64,16.65,6.6,18.41,0,16.86"/></g></g></svg>