<svg xmlns="http://www.w3.org/2000/svg" viewBox="0 0 140.69 54.04"><defs><style>.cls-1{fill:#7e7e7e;fill-rule:evenodd;}</style></defs><title>marriott logo100</title><g id="Layer_2" data-name="Layer 2"><g id="Layer_1-2" data-name="Layer 1"><path class="cls-1" d="M130.14,48.14c-1.76-.92-2-3.53-2-9.86l0-9.7h-3.34l.75-1.8h2.59v-4.6l6.21-2.29v6.74h2.85l-.75,2h-2.1V45.41a3.92,3.92,0,0,0,1.24,2.73Z"/><path class="cls-1" d="M69.12,6.65c.47,1.3,1.55,2.64.78,4.14a4.24,4.24,0,0,1-3.34,3,5.76,5.76,0,0,1-4.29-1.1A10.64,10.64,0,0,1,66.7,1.78l2.42,4.87Z"/><path class="cls-1" d="M75.28,20.1c-.8,2.67-8.69.92-11.16-3.47,3.25.37,6.91-2.51,7-5.79l4.19,9.26Z"/><path class="cls-1" d="M78.51,19.75a2,2,0,0,0,1.27-1.29L71.28.05a1.93,1.93,0,0,0-1.7.39l8.93,19.31Z"/><path class="cls-1" d="M82.32,15.76c3.61-5.47.57-14.45-7.21-15.7l7.21,15.7Z"/><path class="cls-1" d="M81.53,27.53A4.47,4.47,0,0,1,86,27.17a3.69,3.69,0,0,1,1.41,1.11l-2.5,3.89a5.08,5.08,0,0,0-1-.57,3.15,3.15,0,0,0-3.3.46V43.41c0,2,.32,3.75,1.34,4.68H76.27a4.85,4.85,0,0,1-1.59-3.64l-.05-15.09a3.27,3.27,0,0,0-.75-2.44l5.9,0c.47.34.5.93.75,1.39l1-.8Z"/><path class="cls-1" d="M88.72,31.26c0-1.43.27-3.15-.67-4.39h5.47A2.15,2.15,0,0,1,94.2,28a4.31,4.31,0,0,1,.41,1.39l0,16.08A5.71,5.71,0,0,0,96,48.17l-5.85,0c-1.91-1.85-1.28-4.89-1.43-8l0-8.9Z"/><path class="cls-1" d="M97.36,31.42c.59-1.64,2.43-2.46,3.78-3.34,2-.75,4.3-2.62,6.59-1.1a15.29,15.29,0,0,1,4.8,4.6,18.65,18.65,0,0,1,.64,2.39c0,1.07.23,1.86.2,2.93a26.75,26.75,0,0,1,0,3.35,6.89,6.89,0,0,1-2.5,5c-2.27,2-5.14,4.32-8.23,2.75-2.78-1.29-6-3.86-5.85-7.39a36.55,36.55,0,0,1,.12-7.1,5.63,5.63,0,0,1,.45-2.09Zm5.69,11.37c.27,1,.79,2.23,2,2.37a2.26,2.26,0,0,0,1.64-1.07c1.27-2.5,1.09-5.23,1.09-8.07-.41-2.12.09-5-2.19-6.31-.79-.29-1.41.25-1.91.75a8.47,8.47,0,0,0-1,4.59,29.24,29.24,0,0,0,.41,7.74Z"/><path class="cls-1" d="M117.42,48.14c-1.76-.92-2-3.53-2-9.86l0-9.7h-3.35l.75-1.8h2.6v-4.6l6.21-2.29v6.74h2.84l-.75,2h-2.09V45.41a3.88,3.88,0,0,0,1.24,2.73Z"/><path class="cls-1" d="M60.64,29.36a3.7,3.7,0,0,0-.75-2.44l5.9,0c.47.34.5.93.75,1.39l1-.8A4.47,4.47,0,0,1,72,27.17a3.69,3.69,0,0,1,1.41,1.11l-2.5,3.89a5.08,5.08,0,0,0-.95-.57,3.15,3.15,0,0,0-3.3.46V43.41c0,2,.32,3.75,1.34,4.68H62.28a4.58,4.58,0,0,1-1.59-3.64l0-15.09Z"/><path class="cls-1" d="M16.08,35.33l-2.15,4.41c-1.46,2.6-3.51,5.78-6.66,6.58-1.22.42-2.3,0-3.47,0L0,52.49a3,3,0,0,0,1.08.71C7.76,55.75,10.45,53,17,38.14l6.22,13.24h8.27L27.6,42.45l2.21-4.62,6.12,13.35,7.91,0L30,20.77,23.6,24l5,11.36-2.2,4.47L17.25,20l-6.73,3.42,5.56,11.92Z"/><path class="cls-1" d="M41.51,40.7a6.64,6.64,0,0,1,3.42-5.39c2-1.25,4.39-1.75,6.48-2.84.36-.3.82-.66.84-1.14a1.22,1.22,0,0,0-.8-1.25c-3.18-.68-5.82,1.32-8.14,3.3A17.58,17.58,0,0,1,44.52,29c.34-.36.54-.86,1-1.13a15,15,0,0,1,7.59-1.25,5.54,5.54,0,0,1,4.69,3.5,9.26,9.26,0,0,1,.41,2.8l0,12.33a5.33,5.33,0,0,0,1.16,2.93H53.5a4.2,4.2,0,0,1-1.25-2.43c-1.65,1.45-5.09,3.61-7.14,2.18a7.22,7.22,0,0,1-3.6-7.19ZM52,36.41c0-.85-.66-.94-1.09-.94a4.94,4.94,0,0,0-3.3,2.59A6.28,6.28,0,0,0,46.77,41a5,5,0,0,0,.34,2.55,1.76,1.76,0,0,0,1.21.86,3.18,3.18,0,0,0,2.45-.55c1.66-.93,1.37-2.79,1.39-4.45l-.21-3Z"/><path class="cls-1" d="M139.92,45.27a1.52,1.52,0,0,1,0,2.16,1.53,1.53,0,0,1-2.6-1.09,1.54,1.54,0,0,1,1.53-1.53,1.48,1.48,0,0,1,1.07.46Zm.23-.23a1.78,1.78,0,0,0-1.3-.54,1.81,1.81,0,0,0-1.28.5,1.76,1.76,0,0,0-.57,1.34,1.81,1.81,0,0,0,1.85,1.85,1.85,1.85,0,0,0,1.3-3.15Zm-1.08,1.16a.48.48,0,0,1-.29.08h-.21v-.59h.13a.83.83,0,0,1,.31,0,.23.23,0,0,1,.17.23.28.28,0,0,1-.11.24Zm-.5.45h.23a.47.47,0,0,1,.19,0,.28.28,0,0,1,.15.15,1.83,1.83,0,0,1,0,.25,1,1,0,0,0,0,.28h.51l0-.06s0,0,0-.06V47a.56.56,0,0,0-.18-.46.87.87,0,0,0-.29-.12.67.67,0,0,0,.35-.13.45.45,0,0,0,.14-.38.52.52,0,0,0-.27-.49,1.12,1.12,0,0,0-.4-.1h-1v2h.53v-.72Z"/></g></g></svg>