<svg xmlns="http://www.w3.org/2000/svg" viewBox="0 0 284.26 33.4"><defs><style>.cls-1{fill:#7e7e7e;}</style></defs><title>showroomprive logo100</title><g id="Layer_2" data-name="Layer 2"><g id="Layer_1-2" data-name="Layer 1"><g id="Calque_2" data-name="Calque 2"><g id="Calque_1-2" data-name="Calque 1-2"><path class="cls-1" d="M7.26,13.89a2.32,2.32,0,0,0-2-1.38A1.63,1.63,0,0,0,3.57,14c0,1.38,1.82,2,3.67,2.83s3.65,2,3.65,4.49a5.31,5.31,0,0,1-5.35,5.26H5.47A5.81,5.81,0,0,1,0,23.07l2.6-1.18a3.16,3.16,0,0,0,2.87,2,2.28,2.28,0,0,0,2.4-2.13v-.1A1.91,1.91,0,0,0,6.76,20l-3-1.61C2,17.42.72,16.54.72,14.38A4.58,4.58,0,0,1,5.31,9.79h.07A4.69,4.69,0,0,1,9.7,12.56Z"/><path class="cls-1" d="M16.89,0V12.4H17a5.39,5.39,0,0,1,4.76-2.6c4.46,0,5.61,3,5.61,6.85v9.42H24.27V17c0-2.7-.37-4.53-3.48-4.53-3.92,0-3.92,3.44-3.92,6.31v7.26H13.81V0Z"/><path class="cls-1" d="M47,18.21a8.45,8.45,0,0,1-16.89,0,8.44,8.44,0,0,1,16.88,0Zm-13.83,0a5.4,5.4,0,1,0,5.38-5.5A5.48,5.48,0,0,0,33.15,18.21Z"/><path class="cls-1" d="M55.14,20.34,59.79,9.4l4.63,10.94L69,10.28h3.42l-8,16.32L59.77,16,55.14,26.61l-8-16.32h3.45Z"/><path class="cls-1" d="M77.2,12.84h.1a4.54,4.54,0,0,1,4.32-3.06,4.83,4.83,0,0,1,2.5.77l-1.38,2.77a2.69,2.69,0,0,0-1.86-.64c-3.28,0-3.68,3.06-3.68,5.61v7.78H74.14V10.26H77.2Z"/><path class="cls-1" d="M101.26,18.21a8.44,8.44,0,0,1-16.88,0,8.44,8.44,0,0,1,16.88,0Zm-13.84,0a5.4,5.4,0,1,0,5.41-5.5A5.47,5.47,0,0,0,87.42,18.21Z"/><path class="cls-1" d="M120.33,18.21a8.44,8.44,0,0,1-16.88,0,8.44,8.44,0,0,1,16.88,0Zm-13.84,0a5.4,5.4,0,1,0,5.4-5.5,5.48,5.48,0,0,0-5.41,5.5Z"/><path class="cls-1" d="M126,12.24h.07a5.12,5.12,0,0,1,4.18-2.46,5,5,0,0,1,4.56,2.8,5.69,5.69,0,0,1,4.86-2.8c4.16,0,5.24,3.24,5.24,6.82v9.47h-3.06V17.13c0-2-.27-4.63-2.94-4.63-3.24,0-3.48,3.38-3.48,5.81v7.76h-3.06V17.7c0-2-.1-5.2-2.9-5.2-3.24,0-3.51,3.34-3.51,5.81v7.76h-3.06V10.26H126Z"/><path class="cls-1" d="M150.43,13.26h.07a7,7,0,0,1,5.94-3.14c4.76,0,7.7,3.71,7.7,8.27s-2.94,8-7.65,8a7.06,7.06,0,0,1-6-3.07h-.07l-.09,10.07h-1.38V10.45h1.53Zm-.1,5.34A6,6,0,0,0,156.55,25c3.64,0,6.07-3.06,6.07-6.55s-2.33-6.89-6.12-6.89c-4,0-6.17,3.32-6.17,7.07Z"/><path class="cls-1" d="M169.34,12.5h.06a3.58,3.58,0,0,1,3.38-2.36,3.9,3.9,0,0,1,1.65.37l-.81,1.35a2.14,2.14,0,0,0-1.08-.3c-3.42,0-3.2,4.25-3.2,6.55v8h-1.53V10.48h1.53Z"/><path class="cls-1" d="M179.92,5.28a1.39,1.39,0,0,1-2.77,0h0a1.39,1.39,0,1,1,2.77,0Zm-.64,20.79h-1.53V10.48h1.53Z"/><path class="cls-1" d="M189.84,23.34l5.54-12.86h1.53l-7.14,16.44-7.14-16.44h1.53Z"/><path class="cls-1" d="M199.69,18.41A6.08,6.08,0,0,0,205.93,25a6.24,6.24,0,0,0,5.51-3.54l1.28.74a7.6,7.6,0,0,1-7,4.22c-4.63,0-7.56-3.75-7.56-8.16s3-8.11,7.56-8.11c4.73,0,7.53,3.78,7.5,8.28Zm12-1.42a6,6,0,0,0-12,0Z"/><path class="cls-1" d="M243.23,14.09a7.15,7.15,0,0,0-5.5-2.55,6.59,6.59,0,0,0-6.45,6.68,6.63,6.63,0,0,0,6.4,6.77,7.49,7.49,0,0,0,5.74-2.8v2a8.58,8.58,0,0,1-5.67,2.16,7.92,7.92,0,0,1-8-8.16,7.93,7.93,0,0,1,7.77-8.1h.26a8.2,8.2,0,0,1,5.43,1.93Z"/><path class="cls-1" d="M262.17,18.28a8.16,8.16,0,1,1-8.2-8.17,8.06,8.06,0,0,1,8.2,7.9Zm-14.79,0A6.61,6.61,0,0,0,253.86,25a6.72,6.72,0,1,0,0-13.43A6.6,6.6,0,0,0,247.38,18.31Z"/><path class="cls-1" d="M266.51,12.44h.06a4.31,4.31,0,0,1,3.92-2.3A4.59,4.59,0,0,1,274.88,13a4.8,4.8,0,0,1,4.56-2.84c4,0,4.82,2.73,4.82,6.12v9.81h-1.53v-10c0-2.4-.37-4.52-3.34-4.52-3.24,0-4,2.83-4,5.54v9h-1.53V16.45c0-2.43-.44-4.9-3.48-4.9-3.27,0-3.88,3.41-3.88,5.94v8.58H265V10.48h1.53Z"/><circle class="cls-1" cx="222.06" cy="18.34" r="3.62"/></g></g></g></g></svg>