<svg xmlns="http://www.w3.org/2000/svg" viewBox="0 0 225.8 19.72"><defs><style>.cls-1{fill:#7e7e7e;}</style></defs><title>monster logo100</title><g id="Layer_2" data-name="Layer 2"><g id="Layer_1-2" data-name="Layer 1"><g id="MonsterLogo"><g id="Logo"><path id="path170" class="cls-1" d="M18.05,4.65a11.94,11.94,0,0,0-3.12,7V19.6H15l13.09,0V0c-5,.39-7.92,2.29-10,4.65M0,0V19.63H13.16v-8a12.55,12.55,0,0,0-3.13-7C8.06,2.29,5,.39,0,0"/></g><g id="M-Char"><path id="path526" class="cls-1" d="M57.06.05c-.15.09-5.24,10.39-6.05,12L45.15.15,35.83.05V19.58h6.62V8.7L48,19.48l6,.1c.14-.08,4.48-8.85,5.72-11.36V19.58h6.81V.05H57.06Z"/></g><g id="O-Char"><path id="path530" class="cls-1" d="M86.77,12.38c0,.91-.38,1.37-1.14,1.37H76.3c-1,0-1.35-.38-1.35-1.27l0-5.31c0-.93.19-1.35,1.35-1.35h9c1.06,0,1.47.35,1.5,1.28ZM88.85.08H73.31a4.21,4.21,0,0,0-4.5,4.14v11a4.33,4.33,0,0,0,4.52,4.51h16c2.15,0,3.88-2.53,3.88-4.62V4.1c0-2.29-2.61-4-4.31-4"/></g><g id="N-Char"><path id="path534" class="cls-1" d="M115.47.08V13.41L105.44.08H95.27V19.62H102V6l9.91,13.54c.14.07,10.23.11,10.23.11h.18V.08h-6.81Z"/></g><g id="S-Char"><path id="path538" class="cls-1" d="M142.54,7.41H132.09c-1,0-1.55-.41-1.58-1.23,0-1.1,1.07-1.22,1.53-1.22h14.81V.08H129.64a4.78,4.78,0,0,0-5,4.83V7.67c.08,3,2,4.65,5.4,4.65h10.35c1.21,0,1.48.42,1.51,1s-.18,1.24-1.47,1.24H124.13v5l18.47,0a4.75,4.75,0,0,0,5.07-4.84V11.6c-.08-2.55-2.1-4.19-5.13-4.19"/></g><g id="T-Char"><path id="path542" class="cls-1" d="M148.5.08V5h7.86V19.72h6.35V5h7.93V.08H148.5Z"/></g><g id="E-Char"><path id="path546" class="cls-1" d="M172.2.08V19.62h22V14.69H178.47V11.8h14.8V7.45h-14.8V5h15.72V.08h-22Z"/></g><g id="R-Char"><path id="path550" class="cls-1" d="M214,8.76l-.23.79-.76.24h-11.1V5.24h11.12l.7.24.27.89ZM215.86.13H195.93V19.62h6V14.79h11l.79.21.21.66v4h6.23V14.18c-.08-1.33-1.51-1.89-2.48-2.13,1-.25,2.48-.86,2.48-2.43V3.76c0-1.71-1.86-3.63-4.36-3.63"/></g><g id="Reg"><path id="path554" class="cls-1" d="M223.76,2.4H223V1.69h.61c.24,0,.6,0,.6.33s-.2.38-.48.38m1-.31a.68.68,0,0,0-.29-.64,1.44,1.44,0,0,0-.68-.11h-1.2V3.82H223v-1h.49l.56,1h.57l-.61-1c.44,0,.68-.22.68-.68"/></g><g id="RegCircle"><path id="path558" class="cls-1" d="M223.5,4.45a1.88,1.88,0,1,1,1.87-1.88,1.87,1.87,0,0,1-1.87,1.88m0-4.19a2.31,2.31,0,1,0,2.3,2.31A2.31,2.31,0,0,0,223.5.26"/></g></g></g></g></svg>