<svg xmlns="http://www.w3.org/2000/svg" viewBox="0 0 107.49 108.75"><defs><style>.cls-1{fill:#7e7e7e;}</style></defs><title>GOOD MUSIC LOGO100</title><g id="Layer_2" data-name="Layer 2"><g id="Layer_1-2" data-name="Layer 1"><g id="_1L4fkj" data-name="1L4fkj"><path class="cls-1" d="M64,22.31c1-.87,2.08-1.73,3.11-2.61a8.18,8.18,0,0,1,5.63-2.07c.56,0,1.43.37,1.6.8a2.13,2.13,0,0,1-.32,1.9c-1.9,1.88-3.2,4.4-5.9,5.44-.93.36-1.15,1-.48,2,1.83,2.8,4.38,4.86,6.87,7a1.69,1.69,0,0,0,1.21.12c.55-.1,1.07-.41,1.62-.53,1.1-.25,2-.38,2.54-1.77s2.06-1.07,3.27-1.14c.37,0,.74.08,1.1.09,1.79.08,1.79.08,1.68,1.86,1.15.3,1.29,1.15,1.18,2.19a2.06,2.06,0,0,0,.34,1.1,9.69,9.69,0,0,0,1,1.23l-1.63.85c.2.5.42,1.13.69,1.74.53,1.2.37,1.69-.72,2.15s-1.59.29-2-.92c-.07-.2-.13-.39-.2-.58-.94-2.41-2.32-2.91-4.46-1.45s-4.22,2.68-6.88,2.62a1.07,1.07,0,0,0-.73.34c-1.16,1.48-2.27,3-3.6,4.75,7.41.9,10.71,5.73,12.18,12.46,7.09-7.16,14.18-7.37,21.75-.93v-1.8c0-4.64,0-9.27,0-13.91,0-1,.27-1.43,1.38-1.43,3.32,0,3.33,0,3.33,3.27q0,17,0,34.08c0,1.65,0,1.65-1.58,1.65-3,0-3,0-3.11-3,0-.36,0-.72-.1-1.42-3.84,3.88-8.24,5.51-13.4,4.36s-8.34-4.58-10.12-9.67c-2.22,5.9-6,9.59-12.26,9.93-7,.39-11.46-3.29-14-9.81C50.17,78.05,45.43,81.73,38.14,81c-5.85-.57-9.51-4.19-11.62-10.07-1.36,5.62-5.85,8.08-9.9,11.25l1.58.61A13.42,13.42,0,1,1,6.05,84.12c1.43-1,2.78-2,4.4-3.17-5.13-1.67-8.6-4.71-10-9.76A13.19,13.19,0,0,1,1.65,61.3c3.17-6,12-9.9,20.44-4.06,0-1.69.08-3.22,0-4.74C22,51.31,22.39,51,23.58,51c3,.07,3,0,3.06,3,0,2.74,0,5.49.05,8.23,0,.32,0,.63.11,1.33a14.74,14.74,0,0,1,11.25-9.41,10.22,10.22,0,0,1-5.65-3.38C30,48.35,26.83,48,23.65,47.91a30.6,30.6,0,0,0-10.19,1.28c-.25.08-.71.1-.77,0a1.19,1.19,0,0,1-.07-.89,8.12,8.12,0,0,1,8.23-5.76,1.66,1.66,0,0,0,.92-.18,5.9,5.9,0,0,1,4.61-.72,3.39,3.39,0,0,0,3.81-1.55,2.94,2.94,0,0,1,1.43-1.27c1.8-.38,2.12-1.83,2.71-3.15-.13-.11-.18-.19-.25-.21-.7-.25-1.88-.33-2-.75a14.22,14.22,0,0,1-.44-3.82,5.88,5.88,0,0,1,.57-1.67c-.44.14-.74.2-1,.32-.94.45-1.52.17-2-.77a2.52,2.52,0,0,0-1.07-1.22c-1.65-.7-2.29-2.13-1.28-3.64a18,18,0,0,1,2.55-2.62,8.35,8.35,0,0,1,.81-.63l-.11-.31a7.4,7.4,0,0,0-1.16.2c-.86.27-1.69.64-2.55.89-.3.09-.86.09-1-.09-.72-1-1.67-.84-2.65-.64a2,2,0,0,1-2.21-.61,1.25,1.25,0,0,0-1-.34,1.54,1.54,0,0,1-1.87-1.2c-.31-.95.59-1.22,1.21-1.36,1.69-.38,3.4-.63,5.12-.94a8.06,8.06,0,0,0-1.8-.4c-3.28,0-6.25-1.19-9.19-2.43a1.29,1.29,0,0,1-.51-1.05,1.86,1.86,0,0,0-.71-1.83c-.3-.22-.4-.69-.6-1.06.4-.16.81-.5,1.19-.47,3.37.26,6.76.46,10.1,1,2.09.31,4.11,1.11,6.17,1.63a19.14,19.14,0,0,0,2.41.33,11.75,11.75,0,0,1,1.33.14c1.7.41,3.4.79,5.06,1.32a8.13,8.13,0,0,1,1.91,1.22,2.47,2.47,0,0,0,1.25.59,9.15,9.15,0,0,0-1.22-1.12c-1.13-.71-.72-1.49,0-2.07a15.44,15.44,0,0,1,3-1.9c1.49-.73,1.74-1.17.88-2.52-.67-1.07.3-1.21.92-1.66l-1-1.57c2.94.47,4.33-1.9,6.4-3L49.34,1l-1.2.68C47.05.78,47.05.8,46.62,2.2a5.76,5.76,0,0,1-.74,1.22l-.43-.12a4.92,4.92,0,0,1,.36-1.68A2.93,2.93,0,0,1,48.76,0a2.57,2.57,0,0,1,.94.29,3.69,3.69,0,0,0,2.68.11,20.62,20.62,0,0,1,4.84,0,5.12,5.12,0,0,1,2.91.77c1.31,1.21,3.28,2,3.36,4.2-.75-.49-.87-1.86-2.17-1.58l1.06,2.11c.29.06.61.24.63.45.14,1.23.19,2.48.3,3.72a2.52,2.52,0,0,0,.28,1.1A21.22,21.22,0,0,0,65,12.9c.53-.61.1-1.11-.32-1.69a4.61,4.61,0,0,1-1-1.89,37,37,0,0,1-.23-3.94,22.61,22.61,0,0,1,1.89,3.07c.43,1,.73,1.74,2,.76L67,12.79l.29.09.65-.58c.46,1.43,1.23,0,1.85.19a3.23,3.23,0,0,1-2.41,2.74c.12,1.29.1,2.59-1.81,2.67l-.34-.4c-.72.95-1.47,1.84-2.07,2.81-.17.28,0,.86.18,1.25a3.27,3.27,0,0,0,.68.77c-1.13,0-2.18-.09-1.88-2-.87,1.12-1.54,1.92-2.12,2.78a4.71,4.71,0,0,0-.39,1.22c.47.06,1.07.33,1.39.14C62,23.83,63,23,64,22.31ZM45.31,10.77c-.25,0-.64-.23-.72-.13a1.66,1.66,0,0,0,0,2.26l.7-2.18c-.22,1.15.33,1.89,1.36,2.6L47,11.8,48.09,14A6.44,6.44,0,0,0,46.64,14c-1.55.32-1.63.47-1.24,2a2.4,2.4,0,0,1,.33-.55c.42-.37.88-1,1.3-1,.78,0,.81.73.79,1.49a5.32,5.32,0,0,0,.67,1.85c.11.28.36.54.38.82a3.57,3.57,0,0,0,2.66,3.41,25,25,0,0,0,5.07.76c2,.13,2.88-.93,4-2.2L60,20.22l1.5-4.8-4-.48L58.77,13h-.84l.31-.95L57,12.65a4.52,4.52,0,0,0,.16-.45c.15-.59.3-1.19.44-1.78a5.76,5.76,0,0,0-1.52.26,3.7,3.7,0,0,1-3.07.17A1.91,1.91,0,0,0,51.7,11c-1,.46-1.35.48-1.93,0l1.67-.72L50.1,8.5c-2,.49-2.24,1.15-2,3.08a5.8,5.8,0,0,0,1.32,2.28,2.15,2.15,0,0,1,.44,2.39L48,14c.08-.08.25-.18.23-.23-.34-1.2-.71-2.39-1.09-3.67ZM59.44,7.1c-1.48-.59-1.54-.94-.67-4.5l1.29.56A5.32,5.32,0,0,0,54.83,1.7C55.15,3,56.2,3.56,57.08,4.26c.39.3.91.91.83,1.26-.48,2.2,1,3.09,2.45,4.08L60,10.91l.16.07,1.07-1.32.2.15-.89,2,.42.18c.4-.89.83-1.76,1.15-2.68,0-.15-.37-.66-.64-.72a2.34,2.34,0,0,1-2-1.5l2.82,1.19C62.05,5.91,61,3.85,59.3,3.47,58.32,4.85,58.35,5.54,59.44,7.1ZM35.68,40l.44-.07.62,2.7.36-2,.46.2c.14-.66.26-1.26.41-1.87,0-.05,2.67-.3,2.76-.32s.36-.1.59-.16l-.61-1.25h2l-1.18-1.7h.27l-.31-4.35,1.18.77c-.69-1.82.06-2.77,2-3.26-.18.74-.36,1.39-.49,2s-.18,1.21-.27,1.81l.4.08L45,32l-.42,6.09.44.16,1.69-1.9c-.25,1.33-.2,2.27,1.36,2.86A9.72,9.72,0,0,1,46,40.56a2.06,2.06,0,0,0-1.63,1.76c-.22,1.54-.42,3.09-.57,4.63a4.63,4.63,0,0,0,.25,1.27c6.5-1.17,12.89-2.17,18.44-5.92-.42-1.32-1-2.65-.25-4.09l-1.6,2.34-.37-.19,2.12-4.26-.24-.17L61,36.49c-.38-1.27-1.16-1-2-.57s-1.38,0-1.27-.85a10,10,0,0,1,.9-2.86,11.66,11.66,0,0,1,1.37-1.86,9.23,9.23,0,0,0-1.08-1.21,1.61,1.61,0,0,0-1-.24,4.31,4.31,0,0,0-1,.25c-.41-.38-.7-.63-1-.91a1.92,1.92,0,0,1-.49-.73c-.19-.75-.41-1.33-1.39-1.13a.85.85,0,0,1-.72-.49c-.37-1.63-1.76-2.18-3-3-.38,2.91-3.12,2.38-4.84,3.54h2.72c-1.64.94-2.45.87-3.53,0a1.51,1.51,0,0,0-1.11-.16c-1.81.38-2.76,1.8-3.73,3.18-.85,1.19-1.75,2.35-2.57,3.56-1,1.4-1.85,2.84-2.73,4.21l1.16.81L34.08,39a5.76,5.76,0,0,0-1.76.41A15.17,15.17,0,0,0,29.8,41.3c-1.2,1.1-1.1,1.6.37,2.66l.27-1.53.32,0,1.13,2.38,1-2.45.33.1-.47,2.85c1.53-1.22.55-2.92,1.26-4.32l.54,1.82.17,0,.07-1.47.29,0,.39,2.2h.17ZM4.76,95.32a8.56,8.56,0,0,0,8.67,8.79A8.76,8.76,0,1,0,13,86.61,8.57,8.57,0,0,0,4.76,95.32ZM13.41,59a8.72,8.72,0,1,0,.09,17.44A8.72,8.72,0,1,0,13.41,59ZM31,67.6a8.76,8.76,0,0,0,8.6,8.91,8.94,8.94,0,0,0,9-8.71c.23-4.72-5-8.86-8.68-8.79A8.75,8.75,0,0,0,31,67.6Zm52.93,2.56a8.71,8.71,0,0,0,10,6.2A8.8,8.8,0,0,0,101,67.48a8.66,8.66,0,0,0-8-8.43c-4.1-.21-8.18,2.37-8.67,5.64a4.2,4.2,0,0,0,1.26-.46,1.21,1.21,0,0,1,1.91.26,10,10,0,0,1,1,1.65c.43.8.22,1.32-.64,1.75C86.48,68.57,85.17,69.41,83.88,70.16Zm-9.14-2.41a4.83,4.83,0,0,0-1.32-3.82,3.71,3.71,0,0,1-.84-1.35c-.6-1.69-2-2.38-3.5-3-.66-.29-1.06-.18-1.26.59-.54,2.15-2,3.71-3.44,5.3a2,2,0,0,1-2.55.5c-1-.42-2.1-.6-3.14-.93s-1.16.16-1.29.94a8.44,8.44,0,0,0,3.14,8.64,8.29,8.29,0,0,0,9.34,1A8.45,8.45,0,0,0,74.74,67.75Zm4.77-1.35-.23-.26a9.37,9.37,0,0,1,2-1.49c.8-.32,1.06-.65.7-1.42-1.15-2.48-2.21-5-3.51-7.42a19.63,19.63,0,0,0-2.58-3.07c0-.57.28-1.6,0-1.85a4.65,4.65,0,0,0-4.7-1c-.78.28-1.55.58-2.32.87l-.13-.26,2.24-1.35-.11-.27a16.3,16.3,0,0,0-2.1.74c-.83.43-1.59,1-2.38,1.51l-.19-.31.12-.67c-2.93,1-5.08,3.45-4.93,5.18l3.36-3.76.35.17a6.34,6.34,0,0,0-.85,4.94l.9-1.62L66,56.6l.26-1.46.67,1.15.75-1.11,1.86,1.75.4-.45a21.63,21.63,0,0,0,2.16,1.89A1.45,1.45,0,0,1,72.74,60a7.32,7.32,0,0,0,.07,1.61l.35,0,.54-2.05.31.08-.28,2.5.24.05.58-1.43.21.06L75,63h.17l.17-1.35c1.24,2.62,2.52,5.3,3.77,7.93l1.41-.79.17.27.38-1.37.22.21a5.34,5.34,0,0,0,1.32-.82c.72-.78,1.42-1.17,2.43-.5a6.38,6.38,0,0,0,1.4.49C84.61,64.61,83.53,64.55,79.51,66.4ZM61.26,59.5c-1.28-.73-2.59-1.43-3.86-2.21a40.45,40.45,0,0,0-4.53-2.81,8.79,8.79,0,0,1-3-2c-.78-.81-1.94-1.31-2.57-2.2-1.34-1.9-2.85-1-4.31-.47a5.84,5.84,0,0,0-3.54,3.39L41.71,53,43,57l.39,0,.81-2.72.33.07L44.29,58l.29.05.67-2,.19,0,.23,2.26h.2L46.31,56l.25,0,.44,5,.64,0,.83-3.24.82,3.23.26,0L50,59.47c.22.62.37,1,.49,1.36s.25.85.44,1.52l.52-1.48,2.09,1c1.57-.87,2.33,1.1,3.74,1.7V60.89l.25,0L58,62.65h.22l.43-1.78.25,0v1.53l.31-.14a11.64,11.64,0,0,1,1.22,1.32,3.26,3.26,0,0,0,2.46,1.47L64,62.59l.37.08-.72-.56,2-.54-1.32-.64.21-.23,1.49.21.11-.27-1.79-1.31A9.74,9.74,0,0,0,66,59c.31-.11.73-.38.77-.64s-.3-.59-.57-1l-.5.93c-.53,0-1-.21-1.21-.06-1.46,1-3.2,1.73-3.6,3.79l-.34-.17Zm-4.65-7.8.07.2a8,8,0,0,0,1.55-.47c3.28-1.75,6.57-3.49,9.8-5.34A9.73,9.73,0,0,0,70.42,44c1.31-1.52,2.5-3.15,3.94-5a25,25,0,0,0-4.23,1.55,38.74,38.74,0,0,0-3.85,3,7.62,7.62,0,0,1-1.44.68l-.19-.37L68.29,41l-.17-.27L51.35,48.77a20.46,20.46,0,0,0,8.35-2.93A5.66,5.66,0,0,0,62,46,17,17,0,0,0,64,45c1.44-.56,2.91-1,4.68-1.67-.59.57-1,1.15-1.47,1.38-3.12,1.41-5.87,3.58-9.29,4.36a3.63,3.63,0,0,0-1.7,1.23,3.64,3.64,0,0,1-3.49,1.16L53.93,51l-.06-.23-3.64.73a5,5,0,0,0,5.47-.26c1.86-1.1,3.87-1.94,5.82-2.89l.24.47ZM54.14,4l.18.42a8.55,8.55,0,0,1-2.07,1c-2,.41-1.91,1.75-1,3.36V6.62l.49.63,1.43-.7-.72,1.18L52.6,8l1.84-1a2.44,2.44,0,0,1-.51.94c-.31.52-.55,1.07-.82,1.62.68.14,1.36.3,2,.4.17,0,.38-.13.57-.21,2-.84,2.28-.75,3.16,1.2.73-.92.25-1.65-.39-2.27-.81-.79-1.66-1.52-1.24-2.72l-1.32.19c.39-1.41-.62-3.63-1.83-3.92A9.59,9.59,0,0,0,50.42,2c-2,.32-3.14,2-4.53,3.22a1.83,1.83,0,0,0-.27,1.58c.33,1,1.08,1.86.26,3.08a18.23,18.23,0,0,0,4.07-2,1.19,1.19,0,0,0-.1-2ZM36.23,18.25l-.25.09-2.23-2.69-.2.18L34.82,18l-.25.15-1.94-2.68c-.14.28-.08.42,0,.53,1,1.35,1,1.35-.34,2.26-1.57,1.06-1.49,2.69.14,3.59.28.15.49.46.78.58a4.37,4.37,0,0,0,1.58.42,27,27,0,0,0,2.83-.35l0,.29-1.08.66a2.06,2.06,0,0,0,1.12-.09L38.85,23c-1,1.34-1,1.61.12,2.76L39,24.51l1.12,1.21.18-.84a11,11,0,0,0,2.5.72,15,15,0,0,0,3-.4c.52-.09,1-.25,1.7-.42l-6.14-3.9L41.19,22,40,19.94l-.37,1.35L37.57,18.4a6.42,6.42,0,0,1,.19.83,7.6,7.6,0,0,1,0,.86l-2.71-4.95-.36.18Zm7.3,19c-1.77,2-3.38,3.65-4.75,5.46a8.2,8.2,0,0,1-5.1,3.1l-1.2.32A33.9,33.9,0,0,0,43,48.05C42.78,44.49,44.15,41.13,43.53,37.26Zm42.75,2.11c-.59-1.64-1-2.95-1.54-4.21a1.71,1.71,0,0,0-2-1.11c-1.67.32-3.35.67-5,1.12a38.67,38.67,0,0,0-9.48,4.36c2.92-.47,5.86-.86,8.77-1.46C80.16,37.44,83.05,38.13,86.28,39.37ZM14,48.2c6.41-2.41,13-.34,19.4-.92-1.77-1.07-3.55-1.9-5.72-1.51a3.66,3.66,0,0,1-3.57-1.11,1.48,1.48,0,0,0-1.23-.24c-.8.24-1.5.46-2-.46a.83.83,0,0,0-.5-.28C17.8,43.06,14.46,45.34,14,48.2ZM60.36,31.1l.31.28c.55-.4,1.21-1.23,1.63-1.12.91.22,1.14-.31,1.57-.76a7.9,7.9,0,0,1,.69-.6l2.13,4.48c1-.5,1.12.18,1.22.95s-.44,1.91,1,2c.08,0,.14.43.19.66.09.42.15.84.24,1.33a3.56,3.56,0,0,0,2.49-2.84l-1.59.78c0-.91.18-1.87-.2-2.35a8,8,0,0,1-1.66-2.29,18.34,18.34,0,0,0-2.67-4.17,3.2,3.2,0,0,0-3-1.39c1.24,1.6,0,2.27-.8,3.12C61.37,29.8,60.88,30.47,60.36,31.1ZM30.62,15.18l-.23.33c-.81-.58-1.59-1.19-2.43-1.72a4.86,4.86,0,0,0-1.83-.86,7.24,7.24,0,0,0-4.61,1.29c1.05,1.61,2.62,1.48,4.25,1.37l-.48.82.16.36,4-1.19.09.16L27.65,17l.1.3c1.14-.23,2.3-.4,3.41-.73.25-.07.57-.82.45-1a10.87,10.87,0,0,0-1.45-1.51l-.2.22Zm42.53,3.59-.26-.4c-2.13,0-4.1.3-5.75,2.05a38.78,38.78,0,0,1-4.56,3.65c-.43.33-.89.63-1.34.95a.7.7,0,0,0,.65.05c2.86-1.37,5.76-2.69,8.57-4.16A17.55,17.55,0,0,0,73.15,18.77ZM41.32,16c.33.87.58,1.6.9,2.3a12.33,12.33,0,0,0,1.5,2.86,12.43,12.43,0,0,0,2.73,2.05c.27.19.88.29,1,.14a1.46,1.46,0,0,0,.4-1.17,2.76,2.76,0,0,0-2.29-2.3c-1.87-.23-2.64-1.41-3-3.06-.09-.38-.19-.76-.31-1.22ZM24.8,43.27c.68.31,1.51,0,1.49,1.18,0,.16.69.54.94.46a4.6,4.6,0,0,0,1.48-1,1.44,1.44,0,0,0-.53-.91,16.74,16.74,0,0,0-3.36-1c-1.22-.2-2,.65-2.52,1.66a15.14,15.14,0,0,1,2-1,7.62,7.62,0,0,1,2.17.09l0,.37Zm4.43-30.64c.41.34.56.58.76.61a36.51,36.51,0,0,1,3.79.62c1.52.44,3.2.51,4.42,1.82a15.69,15.69,0,0,0,2.44,1.8,1.82,1.82,0,0,0-.47-1.06c-2.38-3-6-2.89-9.22-3.78A7.93,7.93,0,0,0,29.23,12.63Zm5.85,11.63a13.09,13.09,0,0,0-.35,1.93c0,.31.19.89.36.91a15.43,15.43,0,0,0,2.29,0l-.5-1.67.16-.07,1.21,1.41C38.11,24.66,37.22,24,35.08,24.26Zm-.64,3.28c0,.54,0,.75.06.84.57.7,1.29,1.33.9,2.4,0,.07.23.35.36.35a.6.6,0,0,0,.41-.34,4.81,4.81,0,0,0,.06-.93,3.15,3.15,0,0,0,1.07.45,1.52,1.52,0,0,0,1-.37c.66-.63.61-1.52-.11-1.52L38,29ZM27.89,12.19c-2.38-1.34-5-.94-7.51-1.52l-.06.29L25,11.9l-2.65.84ZM48,18.86,47,15.5l-1.27.62C46.39,17.23,46.71,18.47,48,18.86Zm19.5,5.55.34.33c1.54-.16,1.66-1.53,1.88-2.81ZM45,6.71l-.7,3.07.38.07A2.2,2.2,0,0,0,45,6.71Zm-.12,11.83L44,15.47C43.09,16.8,43.41,17.79,44.89,18.54Zm19.91-9-.4.41,1.73,1.56C66.34,10.2,65.77,9.71,64.8,9.55Zm20.58,23L85.23,32l-2.58,1,.16.45ZM41.13,12.35l.06.25,2,.56.35-1.39ZM82,32l-2.08,1.18.13.39,1,.2ZM13.39,9.69l0,.35h4V9.89Z"/><path class="cls-1" d="M31.64,94a7.78,7.78,0,0,1,1.75.73c1.6,1.14,3.48.37,3.85-1.76-.34.12-.62.21-.9.32a4,4,0,0,1-4.77-1.12,4.29,4.29,0,0,1,0-5.24,4.08,4.08,0,0,1,4.91-1,1.76,1.76,0,0,0,1.13-.06c.85-.3,1.4,0,1.4.85,0,2.08.05,4.17,0,6.26a3.53,3.53,0,0,1-2.48,3.46,4,4,0,0,1-4.44-.81,6.63,6.63,0,0,1-.76-1.16ZM35,87.11a2.42,2.42,0,0,0-2.56,2.27,2.64,2.64,0,0,0,2.33,2.7,2.55,2.55,0,0,0,2.54-2.33A2.46,2.46,0,0,0,35,87.11Z"/><path class="cls-1" d="M71.51,94a11.72,11.72,0,0,0,1.76.66,6,6,0,0,0,2.64.24c.59-.17,1-1.08,1.64-1.89a22.58,22.58,0,0,1-3.15.55,3.44,3.44,0,0,1-3.54-2.5,4,4,0,0,1,.92-4.44,3.76,3.76,0,0,1,4.2-.86c.58.2,1,.63,1.76.09.46-.34,1.21-.13,1.2.81,0,2.17,0,4.34-.06,6.51a3.42,3.42,0,0,1-2.52,3.29,4,4,0,0,1-4.43-.9,7.09,7.09,0,0,1-.71-1.07Zm3.27-6.9a2.4,2.4,0,0,0-2.49,2.34,2.62,2.62,0,0,0,2.4,2.63,2.51,2.51,0,0,0,2.48-2.52A2.42,2.42,0,0,0,74.78,87.11Z"/><path class="cls-1" d="M95.93,100.71a13,13,0,0,1,1.42-.89,2.64,2.64,0,0,1,3.76,2.12,36.45,36.45,0,0,1,0,4.79c0,.23-.53.67-.74.63s-.8-.45-.82-.73c-.11-1.1-.06-2.21-.07-3.31s-.28-1.91-1.49-2c-.94-.1-1.68.68-1.78,2-.09,1.1-.07,2.21-.06,3.31,0,.61-.2.9-.85.9s-.87-.28-.87-.89c0-1.1,0-2.21,0-3.31,0-1.26-.62-2-1.57-2s-1.6.74-1.67,1.93,0,2.21-.08,3.31c0,.33-.52.61-.8.92-.27-.31-.76-.62-.77-.94-.08-1.88,0-3.76-.06-5.65,0-1.07.58-1.07,1.35-1a3.43,3.43,0,0,0,1.43-.06C93.69,99.24,94.8,99.83,95.93,100.71Z"/><path class="cls-1" d="M65.28,107.2c-1.53.16-2.79.38-4.05.42a3.72,3.72,0,0,1-3.73-2.29,4,4,0,0,1,.62-4.47,4,4,0,0,1,4.25-1.18,9.62,9.62,0,0,1,1.08.36,15,15,0,0,1,.17-2.11,1.1,1.1,0,0,1,.74-.7c.29,0,.88.33.88.52C65.3,100.92,65.28,104.1,65.28,107.2Zm-4.06-1.3a2.13,2.13,0,0,0,2.24-2.21,2.27,2.27,0,0,0-2.19-2.46,2.36,2.36,0,0,0-2.35,2.33A2.26,2.26,0,0,0,61.22,105.9Z"/><path class="cls-1" d="M54.91,90.43a14,14,0,0,1,0-1.83c.17-1.19-.59-1.44-1.46-1.42s-1.48.22-1.4,1.35c.1,1.34,0,2.7,0,4,0,.61-.11,1-.87,1s-.85-.47-.85-1v-4c0-.59,0-1.13-.78-1.32-.13,0-.15-1.28-.11-1.29,1-.16.87-.93.89-1.61s0-1.17.84-1.17.87.51.89,1.14a1.53,1.53,0,0,0,2.41,1.39c.29-.18.34-.83.39-1.28.08-.6-.05-1.25.92-1.24s.9.59.92,1.24-.17,1.38.83,1.51c0,0,.06,1.26-.08,1.3-.8.21-.75.77-.75,1.34,0,1.27,0,2.54,0,3.81,0,.6.11,1.26-.86,1.27s-.94-.67-1-1.32V90.43Z"/><path class="cls-1" d="M87.84,103.68c0,.89,0,1.79,0,2.69s-.59,1.38-1.6,1a1.73,1.73,0,0,0-1,0,4.1,4.1,0,0,1-4.64-6.47,3.91,3.91,0,0,1,4.78-1,1.44,1.44,0,0,0,.9-.1c1-.38,1.58,0,1.6,1s0,1.88,0,2.82Zm-2,0a2.27,2.27,0,0,0-2.17-2.47,2.34,2.34,0,0,0-.24,4.66A2.19,2.19,0,0,0,85.88,103.7Z"/><path class="cls-1" d="M42.3,90.17c.21,1.84,1.82,2.45,3.42,1.55a11.66,11.66,0,0,1,2-.69l.27.4a6.44,6.44,0,0,1-.62,1,4.26,4.26,0,0,1-5,.88,4.17,4.17,0,0,1-2.12-4.56A4,4,0,0,1,44,85.52a4.15,4.15,0,0,1,4.27,2.64c.58,1.54.26,2-1.33,2Zm4.26-1.49a2.15,2.15,0,0,0-2.39-1.54,2,2,0,0,0-2,1.54Z"/><path class="cls-1" d="M78.32,105.36a3.67,3.67,0,0,1-4.51,2.13,4,4,0,0,1,.43-7.93A4.2,4.2,0,0,1,78.89,103c.1.79-.06,1.26-1,1.21s-1.72,0-2.58,0H72.87c.09,1.59,1.72,2.2,3.18,1.37a9.87,9.87,0,0,1,2.12-.66Zm-5.5-2.79h3.94C75.73,100.71,74,100.7,72.82,102.57Z"/><path class="cls-1" d="M88.63,85.51a4.09,4.09,0,0,1,4.16,4.11,4.17,4.17,0,1,1-4.16-4.11Zm-.09,1.69a2.28,2.28,0,0,0-2.22,2.55,2.22,2.22,0,0,0,2.44,2.3A2.3,2.3,0,0,0,91,89.59,2.34,2.34,0,0,0,88.54,87.2Z"/><path class="cls-1" d="M35.11,99.55a3.83,3.83,0,0,1,4,4,4,4,0,0,1-4.06,4,4.12,4.12,0,0,1-4-4.1A4,4,0,0,1,35.11,99.55ZM35,105.91a2.09,2.09,0,0,0,2.27-2.3,2.15,2.15,0,0,0-2.18-2.41,2.2,2.2,0,0,0-2.3,2.33A2.13,2.13,0,0,0,35,105.91Z"/><path class="cls-1" d="M62.45,86c1.51-.18,2.85-.43,4.19-.46a2.61,2.61,0,0,1,2.61,2.47,38.24,38.24,0,0,1,0,4.79c0,.26-.59.74-.82.7a1.25,1.25,0,0,1-.85-.82c-.1-1.14,0-2.29-.07-3.44,0-1-.32-1.9-1.58-1.94-1,0-1.69.65-1.79,1.93-.09,1.06-.06,2.13-.06,3.19,0,.63,0,1.14-.88,1.14s-.81-.5-.81-1.07C62.45,90.33,62.45,88.13,62.45,86Z"/><path class="cls-1" d="M101,89.67c0,.94,0,1.89,0,2.83.06,1.1-.55,1.18-1.4,1.07a3.41,3.41,0,0,0-1.39,0c-2.2.71-4-.41-4.2-2.72a32.39,32.39,0,0,1,0-4.18c0-.31.53-.6.81-.9.28.3.76.57.8.9a27,27,0,0,1,0,2.7c0,1.76.58,2.64,1.7,2.67s1.91-.92,1.92-2.75c0-.86,0-1.72,0-2.58,0-.64.22-1.12.91-.92a1.29,1.29,0,0,1,.76.91,26.4,26.4,0,0,1,0,3Z"/><path class="cls-1" d="M47.18,103.62c0,.9,0,1.8,0,2.7.07,1.12-.57,1.16-1.4,1.06a2.94,2.94,0,0,0-1.29,0,2.88,2.88,0,0,1-4.12-2.71c0-1.31,0-2.62,0-3.93,0-.61.13-1.16.85-1a1.3,1.3,0,0,1,.75.92c.11,1,0,2,.06,3.07.06,1.44.61,2.14,1.66,2.14s1.69-.67,1.8-2.07c.08-1.06,0-2.13.09-3.18,0-.34.51-.63.78-.93.27.3.74.59.78.92a29,29,0,0,1,0,3Z"/><path class="cls-1" d="M107.27,101.88c-.68-.24-1.15-.45-1.64-.57a6,6,0,0,0-1,0c.11.38.11.9.36,1.12a11.92,11.92,0,0,0,1.51.78,2.3,2.3,0,0,1,.89,2.81,2.21,2.21,0,0,1-2.21,1.64,2.28,2.28,0,0,1-2.44-1.47,2.78,2.78,0,0,1,.09-1.09,9.24,9.24,0,0,1,1.27.37c.4.19.73.57,1.14.67.15,0,.67-.59.61-.72a2.39,2.39,0,0,0-.93-1.12c-1.83-1-2.28-1.52-2-2.88a2.25,2.25,0,0,1,2.52-1.83C106.55,99.6,107.1,100.16,107.27,101.88Z"/><path class="cls-1" d="M103.26,90.41a10.67,10.67,0,0,0,0-2c-.08-.43-.54-.77-.69-1.2a6.55,6.55,0,0,1-.17-1.41c1-.1.88-.89.88-1.57s0-1.14.88-1.15.91.47.91,1.11-.17,1.56,1,1.62c-.06.47,0,1.3-.18,1.35-.78.22-.79.72-.78,1.32,0,1.27,0,2.54,0,3.81,0,.59.16,1.28-.85,1.28s-.9-.71-.91-1.35,0-1.23,0-1.85Z"/><path class="cls-1" d="M70.25,100c.26.65.12,1.06-.61,1.51a2.77,2.77,0,0,0-1,1.75,17.73,17.73,0,0,0,0,3.18c0,.63-.2,1-.91,1s-.82-.47-.82-1c0-1.84,0-3.68,0-5.52,0-.72.23-1.08,1-1S69.34,99.94,70.25,100Z"/><path class="cls-1" d="M52.3,100c.23.55.16,1-.66,1.46a2.64,2.64,0,0,0-1,1.72c-.18,1.08,0,2.2-.1,3.29a1.32,1.32,0,0,1-.81.87c-.63.18-.83-.27-.82-.86,0-1.91,0-3.83,0-5.75,0-.69.29-1,1-.91S51.38,100,52.3,100Z"/><path class="cls-1" d="M60.54,85.9v7.58c-1.56.28-1.65.21-1.66-1.23,0-1.71,0-3.42,0-5.13C58.87,85.69,59,85.62,60.54,85.9Z"/><path class="cls-1" d="M60.77,84.36c-.35.19-.74.57-1,.5a1.32,1.32,0,0,1-.82-.84c-.16-.65.28-1,.92-.86.36.09.64.46.95.7Z"/><path class="cls-1" d="M54.09,19.52c1.46-1,2.69-.67,3.87-.56.2,0,.56.93.45,1.05a19.09,19.09,0,0,1-2,1.68l0-.81Z"/><path class="cls-1" d="M54.1,15.38l-3.31-.89c.79-.66,1.37-1.45,2.09-1.63s1.37.39,2,.74c.23.12.28.57.41.87l-.26.17L54.15,14l-.22.14.31.83Z"/><path class="cls-1" d="M55.39,12.75l-3.23-.95A2.39,2.39,0,0,1,55.39,12.75Z"/></g></g></g></svg>