<svg xmlns="http://www.w3.org/2000/svg" viewBox="0 0 143.6 58.13"><defs><style>.cls-1{fill:#7e7e7e;}</style></defs><title>pickit logo100</title><g id="Layer_2" data-name="Layer 2"><g id="Layer_1-2" data-name="Layer 1"><path class="cls-1" d="M34.35,13.37c8.79,15.44,2.22,21.71,2,22A28.14,28.14,0,0,0,49,28,28.43,28.43,0,0,0,55.71,17.4,29.11,29.11,0,0,0,29.08,0,28.58,28.58,0,0,0,20.9,1.19,30.33,30.33,0,0,1,34.35,13.37Z"/><path class="cls-1" d="M23.82,44.76c-8.8-15.45-2.23-21.71-2-22a28.23,28.23,0,0,0-12.68,7.3A28.56,28.56,0,0,0,2.46,40.72,29.1,29.1,0,0,0,29.08,58.13a28.59,28.59,0,0,0,8.18-1.2C28.89,52.82,25.39,47.48,23.82,44.76Z"/><path class="cls-1" d="M13.37,23.78c15.44-8.8,21.71-2.23,22-2A28.14,28.14,0,0,0,28,9.1,28.4,28.4,0,0,0,17.4,2.42,29.1,29.1,0,0,0,0,29a28.65,28.65,0,0,0,1.19,8.19A30.27,30.27,0,0,1,13.37,23.78Z"/><path class="cls-1" d="M44.76,34.35c-15.45,8.79-21.71,2.22-22,2A28.23,28.23,0,0,0,30.08,49a28.59,28.59,0,0,0,10.64,6.69A29.12,29.12,0,0,0,58.13,29.08a28.59,28.59,0,0,0-1.2-8.18A30.38,30.38,0,0,1,44.76,34.35Z"/><path class="cls-1" d="M76.6,32.92H71.49v8.69H67.12V17.36H76.6c5.57,0,8.53,3.12,8.53,7.77S82.17,32.92,76.6,32.92Zm-.15-11.68h-5v7.84h5c3,0,4.27-1.57,4.27-3.88S79.37,21.24,76.45,21.24Z"/><path class="cls-1" d="M86,21.4V17h4.57V21.4Zm.15,20.21V23.82h4.34V41.61Z"/><path class="cls-1" d="M105.76,39.19A7.78,7.78,0,0,1,99.69,42a8.15,8.15,0,0,1-6.18-2.8,10.11,10.11,0,0,1-2-6.5,10.1,10.1,0,0,1,2-6.49,8.12,8.12,0,0,1,6.18-2.8,7.75,7.75,0,0,1,6.07,2.8,7.21,7.21,0,0,1,1.39,3.88H103a3.64,3.64,0,0,0-.5-1.65,3.12,3.12,0,0,0-2.73-1.35,3.58,3.58,0,0,0-2.61,1.08c-1,1.11-1.19,2.84-1.19,4.49s.15,3.35,1.19,4.5a3.48,3.48,0,0,0,2.61,1.11,3,3,0,0,0,2.73-1.34,3.64,3.64,0,0,0,.5-1.65h4.15A7.19,7.19,0,0,1,105.76,39.19Z"/><path class="cls-1" d="M120.28,41.61l-5-7.76-2.84,3.07v4.69h-4.27V16.94h4.27V31l6.72-7.22h5.38l-6.34,6.88,7,10.91Z"/><path class="cls-1" d="M125.78,21.4V17h4.57V21.4Zm.15,20.21V23.82h4.34V41.61Z"/><path class="cls-1" d="M139.92,41.84c-3.58,0-5.38-2-5.38-5.46v-9h-3.23V23.82h3.27v-4.5l4.26-1.07v5.57h4.5v3.53h-4.5V36c0,1.38.62,2,2,2a24.34,24.34,0,0,0,2.76-.16v3.58A15,15,0,0,1,139.92,41.84Z"/></g></g></svg>