<svg xmlns="http://www.w3.org/2000/svg" viewBox="0 0 198.58 30.15"><defs><style>.cls-1{fill:#7e7e7e;}</style></defs><title>sway ventures logo100</title><g id="Layer_2" data-name="Layer 2"><g id="Layer_1-2" data-name="Layer 1"><path class="cls-1" d="M43.14,16c-.71,2.73-1.33,4.86-1.79,7-.23,1.05-.65,1.55-1.75,1.43a5.86,5.86,0,0,0-1.62,0c-1.6.27-2.2-.47-2.57-2-.94-3.86-2.08-7.67-3.13-11.5-.15-.56-.25-1.14-.4-1.84h5.17l1.7,7.74.37,0c.57-2.13,1.27-4.23,1.69-6.39.36-1.83,1.67-1.15,2.68-1.25s2-.14,2.26,1.3c.46,2.23,1.12,4.42,1.85,7.2l1.85-8.54h5c-1.08,4-2.12,7.81-3.16,11.62,0,.13-.1.25-.13.38-1,3.48-1,3.53-4.57,3.23A2.26,2.26,0,0,1,45,23.09C44.33,20.94,43.85,18.73,43.14,16Z"/><path class="cls-1" d="M69.45,24.48c-1.87-.39-3.71.67-5-.66a31.4,31.4,0,0,1-5.22.91,4,4,0,0,1-4.14-3.42c-.43-2.52.37-4.53,2.6-5.3a55.69,55.69,0,0,1,6.84-1.43c-.27-.58-.41-1.52-.91-1.78a2.76,2.76,0,0,0-2.25,0c-2.1,1.15-2.54,1.28-5.46.48a10,10,0,0,1,.42-1.47C57.5,9.22,60.88,8,64.77,8.75c3.06.59,4.58,2.25,4.66,5.41C69.52,17.51,69.45,20.87,69.45,24.48Zm-5.16-6.57c-1.67.5-3.82-.46-4.15,2,0,.31,1.13,1.11,1.72,1.1C63.59,21,64.48,20,64.29,17.91Z"/><path class="cls-1" d="M72.57,25.79c3.86.15,4.72-1.15,3.22-4.62L70.54,9a47.86,47.86,0,0,1,4.86.06c.47,0,1.06.7,1.25,1.21.81,2.12,1.5,4.29,2.43,7,.8-2.54,1.52-4.5,2-6.51A2,2,0,0,1,83.63,9c1.06.11,2.14,0,3.53,0-.59,1.53-1.1,2.88-1.63,4.23-1.67,4.26-3.25,8.55-5,12.76s-4.27,5-8.64,3.38Z"/><path class="cls-1" d="M6.08,27.13H0l3.12-10C4.73,12,6.38,6.85,7.91,1.68,8.28.42,8.79-.1,10.12,0s2.82,0,4.44,0Z"/><path class="cls-1" d="M30.72,13.3a23.14,23.14,0,0,1-3.33.4A6.34,6.34,0,0,1,25.54,13a6,6,0,0,0-2-.67c-.45,0-.91.58-1.36.91.37.39.68,1,1.13,1.13,1.41.43,2.91.59,4.31,1,2.49.81,3.38,2.08,3.34,4.44s-1.17,4.23-3.67,4.61a21.05,21.05,0,0,1-6.58-.06c-2.43-.4-3.79-2.14-4-4.93,2.08.26,4.23-.78,6,1.22a2.1,2.1,0,0,0,1.72.27c.5-.1.9-.63,1.35-1-.39-.4-.71-1-1.17-1.18-1.28-.39-2.66-.49-3.94-.87C18,17.16,16.87,15.63,17,13.31A4.34,4.34,0,0,1,21,9a18.38,18.38,0,0,1,5.59,0C29,9.37,30.05,10.62,30.72,13.3Z"/><path class="cls-1" d="M107.82,17.37c0,3.72,1.35,6,3.72,6.85,2.87,1,5.1.07,7.45-3l.46.32a13,13,0,0,1-2.3,2.79c-3.38,2.31-8.34.73-9.43-3.19a17.43,17.43,0,0,1-.27-6.94A6,6,0,0,1,114,9c3.21.16,5.14,2.15,5.58,5.81a23.45,23.45,0,0,1,0,2.53Zm11.12-.76c-.09-4.72-2-7-5.55-6.84s-5.74,3-5.42,6.84Z"/><path class="cls-1" d="M184.38,17.42h-12c.1,3.82,1.41,6.09,3.87,6.85,3,.91,5.21-.05,7.24-3.09l.45.34a11.53,11.53,0,0,1-2.12,2.71,6.26,6.26,0,0,1-9.68-3.57,16.74,16.74,0,0,1,0-6.94A5.85,5.85,0,0,1,178.59,9c3,.18,4.8,1.88,5.44,5.28C184.21,15.22,184.25,16.16,184.38,17.42Zm-1-.81c.36-4.18-1.6-6.81-5-6.84-3.72,0-6.07,2.72-5.8,6.84Z"/><path class="cls-1" d="M187.12,20.52c2.42,3.74,4.55,4.68,7.94,3.8a3.33,3.33,0,0,0,2.79-3.47,3,3,0,0,0-2.58-3.14c-1.64-.37-3.31-.64-4.94-1.06A3.37,3.37,0,0,1,187.49,13a3.65,3.65,0,0,1,3.09-3.7c3.43-.9,6.3.09,7.33,2.53A4.63,4.63,0,0,1,198,13c-2.65-3.18-4.59-3.86-7.58-2.88a2.93,2.93,0,0,0-2.22,3,2.68,2.68,0,0,0,2.13,2.82c1.69.45,3.42.74,5.13,1.14,1.91.44,3.1,1.49,3.08,3.64s-.84,3.83-3,4.16a16.06,16.06,0,0,1-5.74-.22C188.18,24.27,187.25,22.86,187.12,20.52Z"/><path class="cls-1" d="M134.14,24.6c0-3.14,0-6.28,0-9.42,0-2-.1-4-2.27-5a5.37,5.37,0,0,0-6.18,1.11A6.16,6.16,0,0,0,124,15c-.23,3.21-.08,6.45-.53,9.67V9.77l.25-.06.27,1.53a29.22,29.22,0,0,1,5-2.09c2.75-.63,5.3.78,5.52,3.34.34,4,.09,8.08.09,12.12Z"/><path class="cls-1" d="M148.6,9.76v3.67c0,2.22,0,4.45,0,6.68.1,2.92,1.52,4.38,4.15,4.43,3,.05,5.59-2,5.66-4.62.08-2.89,0-5.8,0-8.7A2,2,0,0,1,159,9.77V24.59l-.3.09-.32-1.39c-1.79.63-3.57,1.61-5.45,1.85-2.9.37-4.86-1.35-5-4.27-.18-3.69-.05-7.4-.05-11.09Z"/><path class="cls-1" d="M145.45,24.41c-2.92,1.67-5.5.69-5.79-2.19-.32-3.07-.19-6.19-.25-9.28,0-.74,0-1.47,0-2.32l-1.93-.42,0-.28,1.85-.41c.09-1.3.18-2.64.27-4l.49,0v4.1H145l0,.57-4.75.26c0,3.8-.14,7.56.06,11.3C140.42,24.15,141.41,24.54,145.45,24.41Z"/><path class="cls-1" d="M99.14,23.76c2-4.93,3.92-9.54,5.81-14.15l.61.26-6.09,15-.68,0q-3.06-7.5-6.13-15l.63-.27C95.18,14.18,97.08,18.77,99.14,23.76Z"/><path class="cls-1" d="M163.61,24.55V9.82l.3-.07.36,1.7a16.86,16.86,0,0,1,2.89-1.75,13.42,13.42,0,0,1,3-.39l.06.56c-.46.08-.93.19-1.4.23a4.67,4.67,0,0,0-4.71,5c0,3.16,0,6.32,0,9.49Z"/></g></g></svg>