<svg xmlns="http://www.w3.org/2000/svg" viewBox="0 0 91.65 91.65"><defs><style>.cls-1{fill:#fff;}.cls-1,.cls-2{fill-rule:evenodd;}.cls-2{fill:#7e7e7e;}</style></defs><title>WB logo100</title><g id="Layer_2" data-name="Layer 2"><g id="Layer_1-2" data-name="Layer 1"><polygon class="cls-1" points="0 0 91.65 0 91.65 91.65 0 91.65 0 0 0 0"/><path class="cls-2" d="M71.88,31c.87-4.87-2.38-8.69-6.15-11.47-5.27-3.89-11.24-6.21-17.38-8h0V75.72h0c2.72-2.38,5.44-5,8-7.77C62,61.81,67.12,55.55,69.27,48c.87-3.42.4-7.3-2.49-9.62,2.49-2,4.75-4.41,5.1-7.42ZM61.27,53.17a40.82,40.82,0,0,1-7.59,9.62h0l-.06-18.37h0c2.09-1.51,4.23-2.84,6.84-3.07a3.34,3.34,0,0,1,2.66,1.15c2.32,3.66-.4,7.48-1.85,10.67Zm5.27-23.65c-.52,2.9-3.71,4.58-6,5.8a60.61,60.61,0,0,1-7,3h0V19.5h0A35.35,35.35,0,0,1,63.7,24.65c1.45,1.22,3.42,2.73,2.84,4.87Z"/><path class="cls-2" d="M43.59,75.25v-64l-5.16,2.66V48.24h0c-.23,1,.47,2.5-.63,3a.55.55,0,0,1-.64-.29,123.47,123.47,0,0,1-3.54-26h0l-.17-7.83-4.93,3.65V22.8h0A148.61,148.61,0,0,0,31,47h0l-2,2.2h0a18.56,18.56,0,0,1-1.74-3.25c-2.49-6.6-3.42-13.85-3.77-21.32h0l-4.29,3.18h0c.41,11.36,2.55,22.09,9.45,30.61,1.33-1.51,2.67-3.08,4-4.53a58.35,58.35,0,0,0,2.84,8.93c1.91,4.46,4.06,9,8.11,12.46Z"/><path class="cls-2" d="M83.06,19.67l-7.71-1.91L74,12.54l-7.88-1.85L64.46,5,45.85.77,27.6,5,26,10.69l-7.88,1.85h0c-.52,1.8-1,3.54-1.45,5.27h0L8.93,19.67h0a74.79,74.79,0,0,0,12.12,43.7c6,9.22,15,18.95,24.8,23.76C52.52,84,58.43,78.61,63.76,72.64c12.93-15,20-32.45,19.3-53ZM60.34,69.28C56.11,74,51.36,78.73,46,81.45c-5.1-2.55-9.57-7-13.62-11.41C21.86,57.69,14.85,43.9,13.69,27.73a29.46,29.46,0,0,1-.12-4h0l6.55-1.51,1.51-5.39,8.05-1.91.06-.18,1.45-5.56L45.8,5.76,60.86,9.18l1.45,5.68,8.18,2,1.39,5.39,6.6,1.51h0c-.17,17.62-7.18,32.4-18.14,45.55Z"/><path class="cls-2" d="M62.78,86.5A1.39,1.39,0,0,0,64.23,85c0-1.1-.7-1.62-2-1.62H60.11v5.56H61V86.55h.87l1.45,2.38h1L62.78,86.5ZM61,85.8V84.12h1.1c.52,0,1.16.12,1.16.81s-.58.87-1.28.87H61Z"/><path class="cls-2" d="M62.08,81.57a4.75,4.75,0,1,0,4.75,4.75,4.77,4.77,0,0,0-4.75-4.75Zm0,9a4.29,4.29,0,1,1,4.29-4.29,4.28,4.28,0,0,1-4.29,4.29Z"/></g></g></svg>